<svg xmlns="http://www.w3.org/2000/svg" width="600" height="400" viewBox="0 0 600 400"><rect width="100%" height="100%" fill="#DDDDDD"/><path fill="#999999" d="M143.025 181.005h5.1v31.09h-2.97q-.69 0-1.15-.23-.46-.22-.89-.76l-16.23-20.73q.12 1.42.12 2.63v19.09h-5.09v-31.09h3.03q.37 0 .63.03.27.04.48.13.2.1.4.28.19.18.43.49l16.29 20.81q-.06-.76-.1-1.49-.05-.73-.05-1.35v-18.9Zm20.94 8.69q2.45 0 4.46.79 2.01.8 3.44 2.26 1.43 1.46 2.21 3.57.77 2.11.77 4.71 0 2.62-.77 4.73-.78 2.1-2.21 3.59-1.43 1.48-3.44 2.28-2.01.79-4.46.79-2.47 0-4.49-.79-2.02-.8-3.45-2.28-1.43-1.49-2.22-3.59-.78-2.11-.78-4.73 0-2.6.78-4.71.79-2.11 2.22-3.57 1.43-1.46 3.45-2.26 2.02-.79 4.49-.79Zm0 18.64q2.76 0 4.08-1.85 1.32-1.85 1.32-5.42t-1.32-5.44q-1.32-1.87-4.08-1.87-2.79 0-4.14 1.88-1.34 1.88-1.34 5.43t1.34 5.41q1.35 1.86 4.14 1.86Zm25.57-18.3h5.33v22.06h-5.33v-22.06Zm6.06-6.43q0 .69-.28 1.29-.28.6-.74 1.06-.46.45-1.09.72-.62.26-1.33.26-.69 0-1.3-.26-.61-.27-1.07-.72-.45-.46-.72-1.06-.26-.6-.26-1.29 0-.71.26-1.33.27-.62.72-1.08.46-.45 1.07-.72.61-.26 1.3-.26.71 0 1.33.26.63.27 1.09.72.46.46.74 1.08.28.62.28 1.33Zm10 28.49h-5.31v-22.06h3.24q1.04 0 1.36.97l.34 1.63q.58-.64 1.22-1.18.63-.54 1.35-.92.72-.39 1.55-.62.83-.22 1.82-.22 2.08 0 3.42 1.13 1.35 1.12 2.02 2.99.51-1.09 1.29-1.88.77-.78 1.69-1.28.93-.49 1.97-.73 1.04-.23 2.1-.23 1.82 0 3.24.56 1.42.55 2.39 1.63.97 1.07 1.47 2.62.51 1.55.51 3.55v14.04h-5.31v-14.04q0-2.11-.93-3.17-.92-1.07-2.71-1.07-.81 0-1.51.28t-1.23.81q-.52.53-.82 1.32-.31.8-.31 1.83v14.04h-5.33v-14.04q0-2.21-.89-3.22-.89-1.02-2.61-1.02-1.16 0-2.16.57-1 .57-1.86 1.56v16.15Zm42.35-5.7v-3.72q-2.3.11-3.87.4-1.57.29-2.51.74-.95.45-1.36 1.06-.41.6-.41 1.31 0 1.39.83 2 .83.6 2.16.6 1.64 0 2.83-.59 1.19-.59 2.33-1.8Zm-11.22-11.59-.95-1.69q3.81-3.49 9.16-3.49 1.94 0 3.46.64 1.53.63 2.58 1.76 1.06 1.13 1.61 2.7.54 1.57.54 3.44v13.93h-2.4q-.76 0-1.17-.23-.4-.22-.64-.91l-.47-1.59q-.84.75-1.64 1.32-.79.57-1.65.96-.86.39-1.84.59-.98.2-2.16.2-1.4 0-2.58-.37-1.18-.38-2.04-1.13-.86-.75-1.34-1.87-.47-1.12-.47-2.6 0-.84.28-1.67t.91-1.58q.64-.75 1.65-1.42 1.01-.67 2.48-1.16 1.47-.49 3.43-.81 1.96-.31 4.47-.37v-1.29q0-2.22-.94-3.28-.95-1.07-2.73-1.07-1.29 0-2.14.31-.85.3-1.5.67-.64.38-1.17.68-.53.3-1.17.3-.56 0-.95-.29-.38-.29-.62-.68Zm29.45 5.72q.99 0 1.72-.27.74-.26 1.22-.74.48-.47.73-1.14.25-.66.25-1.46 0-1.63-.98-2.59t-2.94-.96q-1.95 0-2.93.96-.98.96-.98 2.59 0 .77.25 1.44.25.67.73 1.15.48.49 1.22.75.75.27 1.71.27Zm6 12.56q0-.65-.38-1.05-.39-.41-1.06-.64-.66-.22-1.56-.33-.89-.11-1.89-.16-1-.06-2.06-.1-1.07-.04-2.08-.17-.88.49-1.43 1.16-.55.67-.55 1.55 0 .58.29 1.08.3.51.93.87.63.37 1.64.57 1.01.21 2.48.21 1.48 0 2.56-.23 1.07-.22 1.77-.62t1.02-.95q.32-.55.32-1.19Zm-1.05-22.3h6.34v1.98q0 .95-1.14 1.16l-1.98.37q.46 1.14.46 2.49 0 1.64-.66 2.96t-1.82 2.24q-1.16.93-2.74 1.43-1.58.51-3.41.51-.64 0-1.24-.06-.6-.07-1.19-.18-1.03.63-1.03 1.4 0 .67.62.98.61.31 1.62.44 1.01.13 2.3.16 1.29.03 2.64.14 1.36.11 2.65.38 1.29.27 2.3.85 1.01.58 1.62 1.58.61 1 .61 2.57 0 1.46-.72 2.83-.72 1.38-2.08 2.46-1.37 1.07-3.36 1.73-1.98.65-4.52.65-2.49 0-4.34-.48-1.85-.49-3.08-1.29-1.22-.81-1.83-1.86-.6-1.06-.6-2.19 0-1.55.94-2.6.93-1.04 2.57-1.66-.88-.45-1.4-1.21-.52-.75-.52-1.97 0-.5.19-1.03.18-.52.53-1.04.36-.51.9-.98.53-.46 1.26-.82-1.67-.91-2.63-2.41-.96-1.51-.96-3.53 0-1.63.66-2.95.66-1.33 1.83-2.26 1.17-.94 2.77-1.43 1.6-.5 3.49-.5 1.42 0 2.67.29t2.28.85Zm13.89 7.74h10.02q0-1.03-.29-1.94-.29-.92-.87-1.6-.58-.69-1.48-1.09-.89-.4-2.07-.4-2.3 0-3.62 1.31-1.33 1.32-1.69 3.72Zm13.54 3.21h-13.65q.13 1.7.6 2.93.48 1.24 1.25 2.04.77.81 1.84 1.21 1.06.4 2.35.4t2.23-.3q.93-.31 1.63-.67.7-.37 1.23-.67.52-.3 1.02-.3.66 0 .99.5l1.52 1.93q-.88 1.03-1.97 1.73-1.1.7-2.29 1.12-1.2.42-2.43.59-1.24.17-2.4.17-2.3 0-4.28-.76-1.98-.76-3.44-2.26-1.46-1.49-2.3-3.7-.84-2.2-.84-5.1 0-2.26.73-4.25.73-1.99 2.1-3.46 1.36-1.47 3.33-2.33 1.97-.86 4.44-.86 2.09 0 3.85.66 1.76.67 3.03 1.95 1.27 1.28 1.99 3.14t.72 4.24q0 1.21-.26 1.63-.26.42-.99.42Zm27.33 4.66v-3.72q-2.3.11-3.87.4-1.57.29-2.52.74-.94.45-1.35 1.06-.41.6-.41 1.31 0 1.39.83 2 .83.6 2.16.6 1.63 0 2.83-.59 1.19-.59 2.33-1.8Zm-11.22-11.59-.95-1.69q3.81-3.49 9.16-3.49 1.93 0 3.46.64 1.53.63 2.58 1.76t1.6 2.7q.55 1.57.55 3.44v13.93h-2.41q-.75 0-1.16-.23-.41-.22-.64-.91l-.48-1.59q-.83.75-1.63 1.32-.8.57-1.66.96-.86.39-1.83.59-.98.2-2.16.2-1.4 0-2.58-.37-1.19-.38-2.05-1.13-.86-.75-1.33-1.87-.47-1.12-.47-2.6 0-.84.28-1.67t.91-1.58q.63-.75 1.65-1.42 1.01-.67 2.48-1.16 1.47-.49 3.43-.81 1.95-.31 4.47-.37v-1.29q0-2.22-.95-3.28-.94-1.07-2.73-1.07-1.29 0-2.14.31-.85.3-1.49.67-.65.38-1.17.68-.53.3-1.17.3-.56 0-.95-.29-.39-.29-.62-.68Zm37.08-4.77h4.2l-8.75 22.06h-4.82l-8.75-22.06h4.39q.6 0 1 .28.39.28.52.71l4.26 11.78q.34 1.03.6 2.02.26.99.45 1.98.22-.99.48-1.98.25-.99.62-2.02l4.34-11.78q.15-.43.54-.71.39-.28.92-.28Zm18.67 16.36v-3.72q-2.3.11-3.87.4-1.57.29-2.52.74t-1.35 1.06q-.41.6-.41 1.31 0 1.39.83 2 .82.6 2.16.6 1.63 0 2.82-.59 1.2-.59 2.34-1.8Zm-11.23-11.59-.94-1.69q3.8-3.49 9.16-3.49 1.93 0 3.46.64 1.52.63 2.58 1.76 1.05 1.13 1.6 2.7.55 1.57.55 3.44v13.93h-2.41q-.75 0-1.16-.23-.41-.22-.65-.91l-.47-1.59q-.84.75-1.63 1.32-.8.57-1.66.96-.86.39-1.84.59-.98.2-2.16.2-1.4 0-2.58-.37-1.18-.38-2.04-1.13-.86-.75-1.33-1.87-.48-1.12-.48-2.6 0-.84.28-1.67t.92-1.58q.63-.75 1.64-1.42 1.01-.67 2.48-1.16 1.48-.49 3.43-.81 1.96-.31 4.48-.37v-1.29q0-2.22-.95-3.28-.95-1.07-2.73-1.07-1.29 0-2.14.31-.85.3-1.49.67-.65.38-1.18.68-.52.3-1.17.3-.56 0-.94-.29-.39-.29-.63-.68Zm21.57-4.77h5.33v22.06h-5.33v-22.06Zm6.06-6.43q0 .69-.28 1.29-.28.6-.74 1.06-.46.45-1.09.72-.62.26-1.33.26-.69 0-1.3-.26-.61-.27-1.06-.72-.46-.46-.72-1.06-.27-.6-.27-1.29 0-.71.27-1.33.26-.62.72-1.08.45-.45 1.06-.72.61-.26 1.3-.26.71 0 1.33.26.63.27 1.09.72.46.46.74 1.08.28.62.28 1.33Zm4.75-3.46h5.31v31.95h-5.31v-31.95Zm22.28 26.25v-3.72q-2.3.11-3.87.4-1.57.29-2.52.74t-1.35 1.06q-.41.6-.41 1.31 0 1.39.83 2 .82.6 2.16.6 1.63 0 2.82-.59 1.2-.59 2.34-1.8Zm-11.23-11.59-.94-1.69q3.8-3.49 9.16-3.49 1.93 0 3.46.64 1.52.63 2.58 1.76 1.05 1.13 1.6 2.7.55 1.57.55 3.44v13.93h-2.41q-.75 0-1.16-.23-.41-.22-.65-.91l-.47-1.59q-.84.75-1.63 1.32-.8.57-1.66.96-.86.39-1.84.59-.98.2-2.16.2-1.4 0-2.58-.37-1.18-.38-2.04-1.13-.86-.75-1.33-1.87-.48-1.12-.48-2.6 0-.84.28-1.67t.92-1.58q.63-.75 1.64-1.42 1.01-.67 2.48-1.16 1.48-.49 3.43-.81 1.96-.31 4.48-.37v-1.29q0-2.22-.95-3.28-.95-1.07-2.73-1.07-1.29 0-2.14.31-.85.3-1.49.67-.65.38-1.18.68-.52.3-1.17.3-.56 0-.94-.29-.39-.29-.63-.68Zm26.71 1.68v9.89q.9 1.1 1.96 1.55 1.07.45 2.25.45 1.23 0 2.2-.44.98-.44 1.67-1.38.69-.93 1.05-2.38.37-1.45.37-3.48 0-3.63-1.2-5.25-1.21-1.63-3.47-1.63-1.52 0-2.66.7-1.14.7-2.17 1.97Zm0-16.34v12.6q1.33-1.4 2.95-2.23 1.63-.82 3.71-.82 1.91 0 3.45.75 1.54.75 2.62 2.16 1.09 1.41 1.67 3.41.58 2 .58 4.49 0 2.69-.66 4.88-.67 2.19-1.91 3.75-1.23 1.56-2.98 2.42-1.74.86-3.87.86-1.03 0-1.87-.2-.83-.21-1.54-.57-.71-.37-1.3-.89-.6-.53-1.13-1.18l-.24 1.49q-.13.56-.44.79-.31.24-.85.24h-3.5v-31.95h5.31Zm19.15 0h5.31v31.95h-5.31v-31.95Zm14.82 18.38h10.02q0-1.03-.3-1.94-.29-.92-.87-1.6-.58-.69-1.47-1.09-.89-.4-2.07-.4-2.3 0-3.63 1.31-1.32 1.32-1.68 3.72Zm13.54 3.21h-13.65q.13 1.7.6 2.93.47 1.24 1.25 2.04.77.81 1.84 1.21 1.06.4 2.35.4t2.23-.3q.93-.31 1.63-.67.7-.37 1.22-.67.53-.3 1.03-.3.66 0 .99.5l1.52 1.93q-.88 1.03-1.98 1.73-1.09.7-2.29 1.12-1.19.42-2.43.59-1.23.17-2.39.17-2.3 0-4.28-.76-1.98-.76-3.44-2.26-1.46-1.49-2.3-3.7-.84-2.2-.84-5.1 0-2.26.73-4.25.73-1.99 2.1-3.46 1.36-1.47 3.33-2.33 1.97-.86 4.44-.86 2.08 0 3.85.66 1.76.67 3.03 1.95 1.27 1.28 1.99 3.14t.72 4.24q0 1.21-.26 1.63-.26.42-.99.42Z"/></svg>